<svg width="394" height="300" viewBox="0 0 394 300" fill="none" xmlns="http://www.w3.org/2000/svg">
<circle cx="150" cy="150" r="150" transform="matrix(-1 0 0 1 300 0)" fill="#DBE4FF" fill-opacity="0.5"/>
<circle cx="150" cy="150" r="149.5" transform="matrix(-1 0 0 1 300 0)" stroke="#8088F1" stroke-opacity="0.1"/>
<ellipse cx="119.5" cy="150" rx="119.5" ry="150" transform="matrix(-1 0 0 1 320 0)" fill="#B3C6FF" fill-opacity="0.5"/>
<path d="M81.5 150C81.5 232.679 134.878 299.5 200.5 299.5C266.122 299.5 319.5 232.679 319.5 150C319.5 67.3214 266.122 0.5 200.5 0.5C134.878 0.5 81.5 67.3214 81.5 150Z" stroke="#8088F1" stroke-opacity="0.1"/>
<ellipse cx="94.5" cy="150" rx="94.5" ry="150" transform="matrix(-1 0 0 1 342 0)" fill="#8088F1" fill-opacity="0.5"/>
<path d="M153.5 150C153.5 191.342 164.058 228.746 181.101 255.799C198.149 282.859 221.637 299.5 247.5 299.5C273.363 299.5 296.851 282.859 313.899 255.799C330.942 228.746 341.5 191.342 341.5 150C341.5 108.658 330.942 71.2537 313.899 44.2005C296.851 17.1408 273.363 0.5 247.5 0.5C221.637 0.5 198.149 17.1408 181.101 44.2005C164.058 71.2537 153.5 108.658 153.5 150Z" stroke="#8088F1" stroke-opacity="0.1"/>
<ellipse cx="61" cy="150" rx="61" ry="150" transform="matrix(-1 0 0 1 362 0)" fill="#8088F1" fill-opacity="0.5"/>
<path d="M240.5 150C240.5 191.373 247.321 228.806 258.33 255.878C263.835 269.415 270.377 280.336 277.616 287.866C284.854 295.394 292.756 299.5 301 299.5C309.244 299.5 317.146 295.394 324.384 287.866C331.623 280.336 338.165 269.415 343.67 255.878C354.679 228.806 361.5 191.373 361.5 150C361.5 108.627 354.679 71.1937 343.67 44.1223C338.165 30.5854 331.623 19.6637 324.384 12.1343C317.146 4.6062 309.244 0.5 301 0.5C292.756 0.5 284.854 4.6062 277.616 12.1343C270.377 19.6637 263.835 30.5854 258.33 44.1223C247.321 71.1937 240.5 108.627 240.5 150Z" stroke="#8088F1" stroke-opacity="0.1"/>
<ellipse cx="27.5" cy="150" rx="27.5" ry="150" transform="matrix(-1 0 0 1 375 0)" fill="#6567EA" fill-opacity="0.5"/>
<path d="M320.5 150C320.5 191.401 323.577 228.869 328.546 255.976C331.032 269.533 333.987 280.474 337.255 288.013C338.889 291.785 340.591 294.677 342.33 296.619C344.071 298.562 345.8 299.5 347.5 299.5C349.2 299.5 350.929 298.562 352.67 296.619C354.409 294.677 356.111 291.785 357.745 288.013C361.013 280.474 363.968 269.533 366.454 255.976C371.423 228.869 374.5 191.401 374.5 150C374.5 108.599 371.423 71.131 366.454 44.0241C363.968 30.4666 361.013 19.526 357.745 11.9866C356.111 8.215 354.409 5.32269 352.67 3.38111C350.929 1.43779 349.2 0.5 347.5 0.5C345.8 0.5 344.071 1.43779 342.33 3.38111C340.591 5.32269 338.889 8.215 337.255 11.9866C333.987 19.526 331.032 30.4666 328.546 44.0241C323.577 71.131 320.5 108.599 320.5 150Z" stroke="#8088F1" stroke-opacity="0.1"/>
<ellipse cx="11.5" cy="150" rx="11.5" ry="150" transform="matrix(-1 0 0 1 387 0)" fill="#6567EA" fill-opacity="0.5"/>
<path d="M364.5 150C364.5 191.413 365.787 228.899 367.867 256.028C368.907 269.594 370.144 280.558 371.516 288.123C372.202 291.91 372.918 294.821 373.651 296.777C374.018 297.758 374.379 298.468 374.723 298.924C375.077 299.393 375.339 299.5 375.5 299.5C375.661 299.5 375.923 299.393 376.277 298.924C376.621 298.468 376.982 297.758 377.349 296.777C378.082 294.821 378.798 291.91 379.484 288.123C380.856 280.558 382.093 269.594 383.133 256.028C385.213 228.899 386.5 191.413 386.5 150C386.5 108.587 385.213 71.1006 383.133 43.9722C382.093 30.4056 380.856 19.4421 379.484 11.8769C378.798 8.09047 378.082 5.17857 377.349 3.22289C376.982 2.24216 376.621 1.53184 376.277 1.07569C375.923 0.607459 375.661 0.5 375.5 0.5C375.339 0.5 375.077 0.607459 374.723 1.07569C374.379 1.53184 374.018 2.24216 373.651 3.22289C372.918 5.17857 372.202 8.09047 371.516 11.8769C370.144 19.4421 368.907 30.4056 367.867 43.9722C365.787 71.1006 364.5 108.587 364.5 150Z" stroke="#8088F1" stroke-opacity="0.1"/>
<ellipse cx="2.5" cy="150" rx="2.5" ry="150" transform="matrix(-1 0 0 1 394 0)" fill="#6567EA" fill-opacity="0.6"/>
<path d="M389.5 150C389.5 191.419 389.78 228.917 390.232 256.058C390.458 269.629 390.728 280.608 391.026 288.193C391.176 291.986 391.333 294.925 391.495 296.912C391.496 296.934 391.498 296.957 391.5 296.979C391.502 296.957 391.504 296.934 391.505 296.912C391.667 294.925 391.824 291.986 391.974 288.193C392.272 280.608 392.542 269.629 392.768 256.058C393.22 228.917 393.5 191.419 393.5 150C393.5 108.58 393.22 71.0834 392.768 43.9423C392.542 30.3712 392.272 19.3922 391.974 11.8074C391.824 8.01394 391.667 5.07545 391.505 3.08806C391.504 3.0656 391.502 3.04327 391.5 3.02108C391.498 3.04327 391.496 3.0656 391.495 3.08806C391.333 5.07545 391.176 8.01394 391.026 11.8074C390.728 19.3922 390.458 30.3712 390.232 43.9423C389.78 71.0834 389.5 108.58 389.5 150Z" stroke="#8088F1" stroke-opacity="0.1"/>
</svg>
