<svg width="394" height="300" viewBox="0 0 394 300" fill="none" xmlns="http://www.w3.org/2000/svg">
<circle cx="244" cy="150" r="150" fill="#DBE4FF" fill-opacity="0.5"/>
<circle cx="244" cy="150" r="149.5" stroke="#8E90E7" stroke-opacity="0.1"/>
<ellipse cx="193.5" cy="150" rx="119.5" ry="150" fill="#B3C6FF" fill-opacity="0.5"/>
<path d="M312.5 150C312.5 232.679 259.122 299.5 193.5 299.5C127.878 299.5 74.5 232.679 74.5 150C74.5 67.3214 127.878 0.5 193.5 0.5C259.122 0.5 312.5 67.3214 312.5 150Z" stroke="#8088F1" stroke-opacity="0.1"/>
<ellipse cx="146.5" cy="150" rx="94.5" ry="150" fill="#8088F1" fill-opacity="0.5"/>
<path d="M240.5 150C240.5 191.342 229.942 228.746 212.899 255.799C195.851 282.859 172.363 299.5 146.5 299.5C120.637 299.5 97.1491 282.859 80.1015 255.799C63.058 228.746 52.5 191.342 52.5 150C52.5 108.658 63.058 71.2537 80.1015 44.2005C97.1491 17.1408 120.637 0.5 146.5 0.5C172.363 0.5 195.851 17.1408 212.899 44.2005C229.942 71.2537 240.5 108.658 240.5 150Z" stroke="#8088F1" stroke-opacity="0.1"/>
<ellipse cx="93" cy="150" rx="61" ry="150" fill="#8088F1" fill-opacity="0.5"/>
<path d="M153.5 150C153.5 191.373 146.679 228.806 135.67 255.878C130.165 269.415 123.623 280.336 116.384 287.866C109.146 295.394 101.244 299.5 93 299.5C84.7563 299.5 76.8545 295.394 69.6165 287.866C62.3771 280.336 55.8347 269.415 50.3297 255.878C39.3206 228.806 32.5 191.373 32.5 150C32.5 108.627 39.3206 71.1937 50.3297 44.1223C55.8347 30.5854 62.3771 19.6637 69.6165 12.1343C76.8545 4.6062 84.7563 0.5 93 0.5C101.244 0.5 109.146 4.6062 116.384 12.1343C123.623 19.6637 130.165 30.5854 135.67 44.1223C146.679 71.1937 153.5 108.627 153.5 150Z" stroke="#8088F1" stroke-opacity="0.1"/>
<ellipse cx="46.5" cy="150" rx="27.5" ry="150" fill="#6567EA" fill-opacity="0.5"/>
<path d="M73.5 150C73.5 191.401 70.4232 228.869 65.4536 255.976C62.9681 269.533 60.0134 280.474 56.7455 288.013C55.1107 291.785 53.4093 294.677 51.6698 296.619C49.9287 298.562 48.1998 299.5 46.5 299.5C44.8002 299.5 43.0713 298.562 41.3302 296.619C39.5907 294.677 37.8893 291.785 36.2545 288.013C32.9866 280.474 30.0319 269.533 27.5464 255.976C22.5768 228.869 19.5 191.401 19.5 150C19.5 108.599 22.5768 71.131 27.5464 44.0241C30.0319 30.4666 32.9866 19.526 36.2545 11.9866C37.8893 8.215 39.5907 5.32269 41.3302 3.38111C43.0713 1.43779 44.8002 0.5 46.5 0.5C48.1998 0.5 49.9287 1.43779 51.6698 3.38111C53.4093 5.32269 55.1107 8.215 56.7455 11.9866C60.0134 19.526 62.9681 30.4666 65.4536 44.0241C70.4232 71.131 73.5 108.599 73.5 150Z" stroke="#8088F1" stroke-opacity="0.1"/>
<ellipse cx="18.5" cy="150" rx="11.5" ry="150" fill="#6567EA" fill-opacity="0.5"/>
<path d="M29.5 150C29.5 191.413 28.213 228.899 26.1332 256.028C25.0931 269.594 23.8556 280.558 22.4843 288.123C21.798 291.91 21.0822 294.821 20.3494 296.777C19.982 297.758 19.6211 298.468 19.2768 298.924C18.9233 299.393 18.6605 299.5 18.5 299.5C18.3395 299.5 18.0767 299.393 17.7232 298.924C17.3789 298.468 17.018 297.758 16.6506 296.777C15.9178 294.821 15.202 291.91 14.5157 288.123C13.1444 280.558 11.9069 269.594 10.8668 256.028C8.78697 228.899 7.5 191.413 7.5 150C7.5 108.587 8.78697 71.1006 10.8668 43.9722C11.9069 30.4056 13.1444 19.4421 14.5157 11.8769C15.202 8.09047 15.9178 5.17857 16.6506 3.22289C17.018 2.24216 17.3789 1.53184 17.7232 1.07569C18.0767 0.607459 18.3395 0.5 18.5 0.5C18.6605 0.5 18.9233 0.607459 19.2768 1.07569C19.6211 1.53184 19.982 2.24216 20.3494 3.22289C21.0822 5.17857 21.798 8.09047 22.4843 11.8769C23.8556 19.4421 25.0931 30.4056 26.1332 43.9722C28.213 71.1006 29.5 108.587 29.5 150Z" stroke="#8088F1" stroke-opacity="0.1"/>
<ellipse cx="2.5" cy="150" rx="2.5" ry="150" fill="#6567EA" fill-opacity="0.6"/>
<path d="M4.5 150C4.5 191.419 4.22019 228.917 3.76784 256.058C3.54165 269.629 3.27237 280.608 2.9735 288.193C2.82402 291.986 2.66736 294.925 2.50549 296.912C2.50366 296.934 2.50183 296.957 2.5 296.979C2.49817 296.957 2.49634 296.934 2.49451 296.912C2.33264 294.925 2.17598 291.986 2.0265 288.193C1.72763 280.608 1.45835 269.629 1.23216 256.058C0.779812 228.917 0.5 191.419 0.5 150C0.5 108.58 0.779812 71.0834 1.23216 43.9423C1.45835 30.3712 1.72763 19.3922 2.0265 11.8074C2.17598 8.01394 2.33264 5.07545 2.49451 3.08806C2.49634 3.0656 2.49817 3.04327 2.5 3.02108C2.50183 3.04327 2.50366 3.0656 2.50549 3.08806C2.66736 5.07545 2.82402 8.01394 2.9735 11.8074C3.27237 19.3922 3.54165 30.3712 3.76784 43.9423C4.22019 71.0834 4.5 108.58 4.5 150Z" stroke="#8088F1" stroke-opacity="0.1"/>
</svg>
